<svg xmlns="http://www.w3.org/2000/svg" xmlns:xlink="http://www.w3.org/1999/xlink" viewBox="0 0 300.4 177.62"><defs><style>.cls-1{fill:url(#Dégradé_sans_nom_114);}.cls-2{fill:url(#Dégradé_sans_nom_114-2);}</style><linearGradient id="Dégradé_sans_nom_114" x1="22.58" y1="193.69" x2="232.33" y2="-16.06" gradientUnits="userSpaceOnUse"><stop offset="0" stop-color="#a8ff78"/><stop offset="1" stop-color="#78ffd6"/></linearGradient><linearGradient id="Dégradé_sans_nom_114-2" x1="210.07" y1="100.53" x2="233.28" y2="77.32" gradientTransform="translate(50.9 -78.06) rotate(22.5)" xlink:href="#Dégradé_sans_nom_114"/></defs><title>Fichier 1</title><g id="Calque_2" data-name="Calque 2"><g id="Calque_1-2" data-name="Calque 1"><path class="cls-1" d="M211.36,177.62h.26A88.78,88.78,0,0,0,300.4,88.84v-.06A88.78,88.78,0,0,0,211.62,0H11.13A11.13,11.13,0,0,0,0,11.13v.06H0c0,.12,0,.24,0,.36a1,1,0,0,0,0,.17A11.1,11.1,0,0,0,4.3,20L67.19,88.81,4.3,157.66A11.07,11.07,0,0,0,0,165.91a.86.86,0,0,0,0,.16c0,.12,0,.24,0,.36H0v.06a11.13,11.13,0,0,0,11.13,11.13ZM36.6,22.32h91.32l-45.66,50Zm0,133,45.66-50,45.66,50Zm174.76,0H158.07L97.34,88.81l60.73-66.49h53.55a66.49,66.49,0,1,1,0,133Z"/><circle class="cls-2" cx="221.67" cy="88.92" r="16.41" transform="translate(-17.16 91.6) rotate(-22.5)"/></g></g></svg>